<svg width="244" height="91" viewBox="0 0 244 91" fill="none" xmlns="http://www.w3.org/2000/svg">
<path d="M23.48 23.2H44.664C49.5707 23.2 53.9227 24.1173 57.72 25.952C61.5173 27.7867 64.4613 30.3893 66.552 33.76C68.6427 37.1307 69.688 41.0773 69.688 45.6C69.688 50.1227 68.6427 54.0693 66.552 57.44C64.4613 60.8107 61.5173 63.4133 57.72 65.248C53.9227 67.0827 49.5707 68 44.664 68H23.48V23.2ZM44.152 57.888C47.992 57.888 51.064 56.8 53.368 54.624C55.7147 52.448 56.888 49.44 56.888 45.6C56.888 41.76 55.7147 38.752 53.368 36.576C51.064 34.4 47.992 33.312 44.152 33.312H36.152V57.888H44.152ZM95.939 56.096H89.027V68H76.355V23.2H96.835C100.888 23.2 104.408 23.8827 107.395 25.248C110.382 26.5707 112.686 28.4907 114.307 31.008C115.928 33.4827 116.739 36.4053 116.739 39.776C116.739 43.0187 115.971 45.856 114.435 48.288C112.942 50.6773 110.787 52.5547 107.971 53.92L117.635 68H104.067L95.939 56.096ZM103.939 39.776C103.939 37.6853 103.278 36.064 101.955 34.912C100.632 33.76 98.6697 33.184 96.067 33.184H89.027V46.304H96.067C98.6697 46.304 100.632 45.7493 101.955 44.64C103.278 43.488 103.939 41.8667 103.939 39.776ZM146.322 68.896C141.586 68.896 137.319 67.8933 133.522 65.888C129.767 63.8827 126.802 61.1093 124.626 57.568C122.493 54.0267 121.426 50.0373 121.426 45.6C121.426 41.1627 122.493 37.1733 124.626 33.632C126.802 30.0907 129.767 27.3173 133.522 25.312C137.319 23.3067 141.586 22.304 146.322 22.304C151.058 22.304 155.303 23.3067 159.058 25.312C162.855 27.3173 165.821 30.0907 167.954 33.632C170.13 37.1733 171.218 41.1627 171.218 45.6C171.218 50.0373 170.13 54.0267 167.954 57.568C165.821 61.1093 162.855 63.8827 159.058 65.888C155.303 67.8933 151.058 68.896 146.322 68.896ZM146.322 58.4C148.583 58.4 150.631 57.8667 152.466 56.8C154.301 55.7333 155.751 54.24 156.818 52.32C157.885 50.3573 158.418 48.1173 158.418 45.6C158.418 43.0827 157.885 40.864 156.818 38.944C155.751 36.9813 154.301 35.4667 152.466 34.4C150.631 33.3333 148.583 32.8 146.322 32.8C144.061 32.8 142.013 33.3333 140.178 34.4C138.343 35.4667 136.893 36.9813 135.826 38.944C134.759 40.864 134.226 43.0827 134.226 45.6C134.226 48.1173 134.759 50.3573 135.826 52.32C136.893 54.24 138.343 55.7333 140.178 56.8C142.013 57.8667 144.061 58.4 146.322 58.4ZM207.246 59.296H188.302L184.782 68H171.854L191.63 23.2H204.11L223.95 68H210.766L207.246 59.296ZM203.534 49.952L197.774 35.616L192.014 49.952H203.534Z" fill="#F4F4F4"/>
<rect x="5" y="5" width="234" height="81" stroke="#F4F4F4" stroke-width="10"/>
</svg>
