<svg id="Ebene_1" data-name="Ebene 1" xmlns="http://www.w3.org/2000/svg" viewBox="0 0 559.15 181.59"><defs><style>.cls-1{fill:#f4f4f4;}</style></defs><title>adsad</title><path class="cls-1" d="M0,45.42V27.3H43.67l1.44,13A35.72,35.72,0,0,1,57,29.15,32,32,0,0,1,73,25.24q20.7,0,32.14,16.17T116.6,83.95v2.16q0,24.72-11.43,39.76t-31.93,15a36.18,36.18,0,0,1-15.55-3.19A32.44,32.44,0,0,1,46,128.13v32.24l14.52,3.09v18.13h-59V163.46l14.52-3.09V48.51ZM86.52,83.95q0-15.76-5.25-25.54T65.2,48.62A23,23,0,0,0,53.56,51.4,20,20,0,0,0,46,59.33v48.82a18.52,18.52,0,0,0,7.52,7.21,25.83,25.83,0,0,0,11.85,2.47q10.92,0,16-8.55t5.15-23.18ZM201,138.74a56.62,56.62,0,0,1-2.16-5.67,47.27,47.27,0,0,1-1.44-6,41.21,41.21,0,0,1-13.08,10,38.65,38.65,0,0,1-17.51,3.81q-16.38,0-26.06-8.86t-9.58-24.31q0-15.66,12.57-24.21T180.56,75h15.35V64.07q0-8-4.64-12.46t-13.7-4.43a31.17,31.17,0,0,0-9.17,1.24,23,23,0,0,0-6.49,2.78l-2,11.95H137.3l.1-24.72A84.72,84.72,0,0,1,156.25,29a69,69,0,0,1,23.28-3.81q20.7,0,33.58,10.2t13,28.84v50.88a42.12,42.12,0,0,0,.41,4.33l9.17,1.24v18ZM174.9,118.66a26.45,26.45,0,0,0,12.36-2.88,24.32,24.32,0,0,0,8.65-7.42v-17H180.56q-9.58,0-14.52,4.53a13.87,13.87,0,0,0-4.94,10.71q0,5.66,3.61,8.86T174.9,118.66Zm73.34,2.06,14.42-3.09V48.51l-16-3.09V27.3h44L292,43.57A35.07,35.07,0,0,1,302.1,30.08a22.56,22.56,0,0,1,14.32-4.84,31.31,31.31,0,0,1,4.94.41,27.06,27.06,0,0,1,4.43.82l-3.19,27.4-12.36-.31a21.06,21.06,0,0,0-10.92,2.57,16.64,16.64,0,0,0-6.59,7.31v54.18l14.42,3.09v18H248.23ZM381.62,0V27.3h19.57V48.41H381.62v56.75q0,6.49,2.68,9.27a9.54,9.54,0,0,0,7.21,2.78q3.09,0,5.36-.21t5.25-.93l2.58,21.73a67.28,67.28,0,0,1-10,2.27,65.27,65.27,0,0,1-10.71.82q-15.55,0-24-8.55t-8.34-27.09V48.41H335.27V27.3h16.38V0Z"/><path class="cls-1" d="M559.15,45.56V27.38h-147V45.56l65.35,71.59v37.77L463,158v16.34h45.23V158l-14.44-3.07V117.14ZM448.29,60h0l-14.45-14.4H537.42L523,60H448.29Z"/></svg>